<svg width="603" height="574" viewBox="0 0 603 574" fill="none" xmlns="http://www.w3.org/2000/svg">
<rect x="23" y="10" width="549" height="532" fill="#F7F6F4"/>
<path d="M171.274 355.569C169.262 349.593 168.195 343.623 167.17 337.658C166.968 336.481 165.602 334.558 168.117 333.929C170.299 333.383 170.929 334.932 171.637 336.465C173.576 340.663 174.853 345.069 176.175 349.453C180.544 363.933 184.029 378.63 187.644 393.289C190.378 404.376 193.223 415.436 198.86 425.522C203.326 433.512 208.808 440.942 216.147 446.905C218.154 448.536 219.82 450.542 222.181 451.81C220.827 448.684 219.387 445.588 218.136 442.422C215.63 436.075 214.941 429.419 214.732 422.706C214.702 421.758 214.405 420.518 215.958 420.234C217.492 419.954 218.131 420.956 218.45 422.074C219.32 425.127 220.306 428.174 220.842 431.286C222.206 439.199 225.829 446.256 230.347 452.787C239.505 466.027 252.744 474.854 267.127 482.336C282.292 490.224 298.749 491.566 315.381 490.054C324.908 489.187 334.647 487.268 342.519 481.212C345.554 478.877 348.221 476.102 350.995 473.47C359.683 465.226 369.635 458.394 378.861 450.754C385.475 445.278 390.27 438.475 393.41 430.677C398.368 418.361 400.89 405.479 403.31 392.547C405.211 382.392 407.709 372.338 409.932 362.237C411.774 353.867 413.517 345.476 415.483 337.133C416.185 334.15 417.292 331.237 418.428 328.369C421.35 320.997 422.791 313.343 423.684 305.547C425.189 292.41 424.126 279.35 422.676 266.289C422.523 264.905 422.572 263.483 422.715 262.096C422.811 261.169 423.262 260.174 424.461 260.18C425.509 260.185 425.776 261.038 426.022 261.919C428.546 270.953 430.125 280.122 430.04 289.484C430 293.928 430.265 298.366 430.264 302.81C430.261 314.276 427.933 325.188 423.704 335.84C421.689 340.915 421.095 346.32 420.086 351.618C418.639 359.21 417.385 366.835 415.425 374.331C415.334 374.679 415.335 375.048 415.266 375.649C419.696 372.772 423.756 369.949 425.613 365.06C426.542 362.617 426.422 360.05 426.555 357.61C427.438 341.391 432.311 326.135 438.237 311.086C440.298 305.851 442.031 300.5 444.067 295.256C444.487 294.175 444.724 292.363 446.582 292.626C448.297 292.869 448.084 294.522 448.484 295.746C449.732 299.57 447.959 303.113 447.395 306.738C446.302 313.775 443.246 320.297 440.959 327.019C437.427 337.399 434.825 347.967 433.528 358.831C433.228 361.34 433.122 363.835 432.968 366.341C432.663 371.275 428.968 374.309 425.698 377.471C422.671 380.397 419.346 383.034 415.039 384.22C413.404 384.671 412.69 385.708 412.298 387.425C409.79 398.423 407.953 409.56 404.773 420.422C400.768 434.099 394.859 446.741 383.735 456.675C379.154 460.766 374.301 464.531 369.284 468.115C362.684 472.829 356.51 478.041 351.177 483.999C346.466 489.262 340.782 492.589 333.908 494.494C324.454 497.114 314.901 498.41 305.006 498.676C280.821 499.326 260.2 491.292 242.348 476.358C235.827 470.904 228.353 466.816 221.588 461.768C210.326 453.366 200.29 443.837 193.415 431.701C189.454 424.711 186.257 417.397 184.171 409.685C182.295 402.751 180.517 395.792 178.683 388.847C178.18 386.942 177.152 385.85 174.804 385.79C163.152 385.494 151.536 376.238 149.058 365.414C146.814 355.612 143.177 346.241 138.646 337.242C131.607 323.257 128.061 308.666 128.737 293.151C128.831 290.995 129.63 288.985 129.975 286.59C127.979 286.973 126.661 287.839 125.647 289.281C120.676 296.34 115.585 303.334 114.223 312.044C114.122 312.685 113.993 313.557 112.886 313.914C111.176 312.961 111.221 311.25 111.11 309.632C110.681 303.315 113.433 297.844 116.141 292.339C120.472 283.539 127.991 278.516 137.439 275.624C142.281 274.142 147.121 272.631 151.73 270.536C152.988 269.964 154.586 269.424 155.588 270.476C156.687 271.63 155.505 272.903 154.798 273.985C153.354 276.195 151.443 277.829 148.71 278.528C146.929 278.983 145.236 279.69 143.457 280.84C148.77 285.222 153.478 289.92 157.938 294.824C160.765 297.932 163.439 301.112 167.156 303.358C168.909 304.418 170.025 304.045 171.075 302.551C172.215 300.929 173.028 299.084 174.573 297.735C175.151 297.231 175.81 296.711 176.665 297.187C177.542 297.674 177.21 298.396 177.096 299.158C176.664 302.052 175.403 304.696 174.396 307.404C173.256 310.47 170.554 311.56 167.292 310.394C165.089 309.605 162.933 308.62 161.219 307.043C153.943 300.353 147.233 293.219 142.371 284.684C141.874 283.813 141.544 282.856 140.921 281.454C140.276 284.344 138.766 286.312 137.048 288.205C135.943 289.424 135.654 291.002 135.618 292.66C135.322 306.203 138.313 319.005 144.146 331.391C149.025 341.749 153.834 352.186 156.31 363.418C158.08 371.449 166.857 376.081 173.103 377.481C175.114 377.932 175.969 376.986 175.491 374.893C174.036 368.532 172.707 362.145 171.274 355.569H171.274Z" fill="black"/>
<path d="M257.092 371.448C262.745 363.771 269.239 357.068 276.292 350.847C278.312 349.066 278.64 349.029 281.232 348.756C282.416 350.725 281.398 352.495 280.252 353.909C276.952 357.98 276.758 362.669 276.772 367.457C276.777 369.043 277.035 370.703 276.643 372.203C275.911 375.009 277.47 375.853 279.834 376.432C283.356 377.296 287.013 376.948 290.567 377.776C295.705 378.975 300.29 381.072 304.541 384.017C306.591 385.437 308.652 387.193 311.162 387.54C314.408 387.988 317.829 388.276 320.646 385.831C327.215 380.132 335.124 376.306 342.499 371.729C346.32 369.358 346.952 367.269 345.539 363.221C344.983 361.63 344.361 360.056 343.9 358.44C343.529 357.137 343.477 355.752 344.895 354.935C346.32 354.115 347.563 354.725 348.539 355.79C349.692 357.05 350.868 358.313 351.843 359.697C358.456 369.086 364.187 378.941 368.922 389.314C369.04 389.571 369.224 389.81 369.286 390.077C369.604 391.447 370.93 393.088 368.987 394.067C367.039 395.049 366.274 393.196 365.39 392.047C360.712 385.963 356.069 379.855 351.22 373.501C343.662 379.46 334.229 382.656 327.619 389.645C320.016 397.683 310.584 396.348 302.486 391.218C300.448 389.927 298.56 388.42 296.516 387.138C292.768 384.787 288.782 383.16 284.114 383.58C281.443 383.82 278.85 383.224 276.367 382.317C271.82 380.655 270.44 378.396 271.444 373.81C271.984 371.344 271.638 368.827 271.965 366.126C269.537 368.705 267.054 371.242 264.692 373.875C261.257 377.701 257.933 381.616 254.505 385.448C253.776 386.263 252.911 387.372 251.556 386.659C250.277 385.985 250.623 384.717 250.866 383.632C251.869 379.156 254.465 375.405 257.092 371.448ZM487.034 257.229C480.67 248.846 473.241 241.739 464.801 235.564C461.879 233.426 458.881 231.333 457.035 228.159C458.688 225.851 460.683 225.251 463.223 226.257C467.744 228.046 471.306 231.159 474.892 234.154C485.145 242.715 493.402 252.853 500.115 264.12C505.776 273.62 508.128 283.99 509.034 294.803C510.063 307.088 508.416 319.253 507.695 331.456C507.437 335.824 506.875 340.061 508.138 344.436C509.383 348.745 511.733 352.004 515.587 354.425C516.727 355.141 517.703 356.09 518.816 356.848C520.32 357.872 521.302 359.146 520.424 360.876C519.516 362.665 517.681 362.474 516.029 362.114C509.977 360.795 505.95 356.985 502.84 352.134C500.403 348.336 499.86 344.175 500.265 339.802C500.617 336.006 500.624 332.172 500.747 328.377C501.012 320.185 502.437 312.079 502.135 303.841C501.518 287.035 498.142 271.128 487.035 257.23L487.034 257.229ZM173.529 263.851C172.975 264.084 172.606 264.213 172.251 264.372C171.236 264.831 170.06 265.211 169.242 264.362C168.285 263.367 169.319 262.445 169.92 261.649C172.48 258.259 175.029 254.936 176.619 250.925C179.231 244.336 179.427 237.464 179.978 230.62C180.395 225.437 181.751 220.235 181.04 215.078C180.336 209.976 181.102 204.847 180.09 199.772C179.664 197.636 180.019 195.36 180.019 192.77C177.137 196.418 174.503 199.972 171.631 203.343C164.895 211.25 157.855 218.872 148.591 224.282C147.357 225.002 146.391 226.126 145.202 226.932C144.235 227.588 143.153 228.064 142.002 227.08C140.938 226.169 141.36 225.223 141.843 224.289C143.553 220.989 146.776 219.006 149.51 216.658C155.582 211.444 160.622 205.396 165.78 199.417C170.805 193.593 176.168 188.028 181.077 182.12C184.312 178.228 187.865 174.662 191.528 171.167C192.289 170.441 193.025 169.676 193.872 169.051C194.881 168.306 196.03 167.533 197.331 168.41C198.65 169.3 198.183 170.532 197.775 171.712C196.42 175.619 193.398 178.536 190.984 181.779C188.112 185.639 186.552 189.534 186.773 194.427C187.292 205.859 188.737 217.278 187.962 228.74C187.32 238.24 186.04 247.637 181.229 256.237C179.451 259.413 177.473 262.382 173.529 263.851ZM92.9144 307.901C93.4915 314.586 97.2761 319.773 100.004 325.423C107.389 340.72 107.349 355.839 97.4628 370.359C96.6237 371.59 95.4842 372.388 94.154 373.036C93.1288 373.534 92.0653 373.81 91.1378 373.034C90.1944 372.245 90.3405 371.142 90.8269 370.187C92.3226 367.25 93.985 364.388 95.4242 361.428C100.939 350.087 100.222 338.742 93.6381 328.26C88.1222 319.476 85.235 310.351 85.1584 300.238C85.0972 292.301 85.5118 284.47 87.3761 276.648C89.5331 267.592 94.5073 260.179 100.629 253.297C104.293 249.177 108.141 245.193 112.936 242.184C113.508 241.825 114.037 241.386 114.646 241.097C115.863 240.518 117.352 239.608 118.419 240.781C119.524 241.995 118.237 243.174 117.418 244.176C112.551 250.139 107.699 256.112 102.779 262.034C97.0724 268.904 94.3412 276.803 93.1977 285.405C92.2095 292.836 92.3297 300.236 92.9144 307.901ZM271.378 248.803C277.696 250.899 280.699 255.697 283.173 260.852C284.408 263.426 283.124 264.815 280.182 264.451C272.637 263.516 265.144 261.763 257.468 262.583C250.494 263.328 243.373 263.126 236.563 264.876C232.557 265.906 229.262 268.383 226.538 271.411C224.947 273.18 223.51 275.081 221.847 276.783C220.348 278.318 218.036 279.885 216.25 278.856C214.362 277.768 215.226 275.203 215.873 273.224C216.75 270.538 218.962 268.751 220.621 266.578C224.671 261.275 229.329 256.458 234.202 251.901C237.971 248.376 243.172 247.229 248.373 246.402C256.228 245.155 263.721 246.576 271.378 248.803ZM482.781 358.865C486.488 365.374 492.265 369.723 498.051 374.042C499.448 375.085 500.781 376.164 501.956 377.42C502.857 378.382 503.483 379.473 502.58 380.693C501.711 381.869 500.468 381.476 499.386 381.024C494.698 379.063 490.399 376.486 486.473 373.366C479.278 367.648 474.554 360.327 471.534 351.983C469.393 346.067 468.368 339.837 468.073 333.676C467 311.22 458.751 291.393 444.878 273.473C443.651 271.888 442.449 270.27 441.772 268.426C441.269 267.055 440.856 265.45 442.59 264.418C444.376 263.353 445.716 264.411 446.633 265.603C457.089 279.199 468.187 292.451 471.618 309.694C473.11 317.195 473.942 324.757 474.875 332.324C476.005 341.48 477.505 350.591 482.781 358.865ZM353.133 270.399C349.333 270.887 345.758 271.312 342.204 271.857C338.358 272.447 336.895 271.055 337.696 267.431C338.878 262.087 342.137 258.387 347.471 256.398C354.36 253.828 361.435 253.471 368.808 254.028C375.504 254.534 382.068 255.255 387.362 259.297C393.831 264.236 398.359 270.579 399.445 278.695C399.577 279.683 399.756 280.852 398.484 281.387C397.111 281.965 396.279 280.998 395.462 280.208C394.775 279.544 394.118 278.838 393.548 278.083C390.168 273.602 385.855 270.802 379.812 270.998C375.879 271.126 372.149 269.753 368.196 269.67C363.214 269.564 358.291 269.77 353.133 270.399ZM272.424 430.188C266.329 430.602 260.471 430.861 254.711 431.938C253.617 432.142 252.5 432.539 251.749 431.527C250.957 430.463 251.074 429.231 251.702 428.082C252.122 427.314 252.75 426.688 253.619 426.423C258.26 425.008 262.784 423.069 267.776 423.063C279.251 423.048 290.728 423.023 302.202 423.167C306.372 423.219 310.55 424.085 314.698 423.932C317.906 423.813 321.163 423.908 324.339 423.495C330.894 422.643 337.492 422.708 344.001 423.179C351.569 423.726 358.115 426.811 362.698 432.938C363.426 433.911 363.953 434.904 363.234 436.021C362.478 437.195 361.175 437.016 360.038 436.815C357.893 436.436 355.98 435.435 354.135 434.385C349.745 431.885 345.055 430.707 339.915 430.673C331.383 430.614 322.888 431.531 314.347 431.278C300.46 430.868 286.594 429.685 272.424 430.188ZM230.388 303.413C225.546 307.593 220.211 310.697 214.48 313.183C211.594 314.436 208.566 314.528 205.664 313.202C204.418 312.632 203.172 311.652 203.754 310.131C204.331 308.625 205.674 309.421 206.774 309.648C211.977 310.722 215.534 307.622 219.128 304.981C226.027 299.908 231.682 293.46 238.812 288.619C246.685 283.273 255.398 281.151 264.895 282.925C271.13 284.09 275.592 288.186 279.728 292.461C281 293.776 281.16 295.748 279.599 297C277.954 298.321 275.88 298.224 274.2 296.838C271.911 294.95 269.984 292.653 267.185 291.357C266.753 291.157 266.325 290.948 265.763 290.681C264.824 292.247 264.637 293.854 264.6 295.518C264.498 300.222 262.318 303.962 259.142 304.961C254.71 306.357 250.587 305.002 247.254 301.056C245.369 298.825 244.459 296.2 243.872 293.036C238.922 296.13 234.841 299.838 230.388 303.413ZM470.379 181.742C464.817 176.282 457.98 172.971 451.284 169.473C449.892 168.745 448.654 167.857 447.48 166.867C445.921 165.552 446.218 164.021 447.103 162.552C448.077 160.934 449.684 160.921 451.217 161.598C468.366 169.179 482.17 180.225 490.257 196.82C493.392 203.255 495.356 210.242 495.321 217.34C495.268 228.231 499.583 236.986 507.742 244.294C508.241 244.74 508.693 245.236 509.15 245.723C510.184 246.827 510.432 248.013 509.488 249.282C508.476 250.645 507.187 250.147 506.088 249.545C500.661 246.569 496.376 242.448 492.738 237.612C489.065 232.731 488.24 227.124 488.153 221.446C487.967 209.302 484.055 198.383 476.823 188.514C475.047 186.09 472.644 184.081 470.379 181.742ZM185.916 91.2767C174.238 95.983 163.889 102.179 154.853 110.439C148.447 116.294 142.373 122.308 138.464 130.009C137.826 131.264 137.394 132.618 136.713 133.847C135.973 135.183 134.662 135.591 133.194 135.118C131.605 134.606 131.834 133.472 132.052 132.139C133.617 122.536 139.788 115.607 146.7 109.131C157.106 99.3827 168.505 90.974 182.248 85.8287C192.384 82.0338 202.669 78.9272 213.665 78.1537C218.429 77.8179 223.137 76.6845 227.912 77.772C230.066 78.2619 232.972 77.9855 233.205 81.1167C233.369 83.3214 231.799 84.1964 227.653 84.0725C215.101 83.6964 202.826 84.9599 191.032 89.3159C189.389 89.9229 187.761 90.5709 185.916 91.2767ZM405.757 155.189C414.027 160.309 418.888 167.72 422.08 176.063C424.114 181.378 424.238 187.179 424.754 192.817C425.51 201.068 425.604 209.355 426.053 217.62C426.562 227 426.399 236.37 426.526 245.745C426.531 246.119 426.563 246.499 426.502 246.864C426.25 248.367 425.952 250.02 424.04 250.238C422 250.471 420.998 248.89 420.581 247.37C419.896 244.865 419.257 242.323 419.237 239.687C419.182 232.344 419.323 224.989 418.927 217.663C418.446 208.774 417.328 199.917 416.805 191.03C416.446 184.936 415.471 179.04 413.076 173.359C409.83 165.658 403.596 160.485 396.867 155.701C396.164 155.201 395.509 154.635 394.875 154.057C394.684 153.882 394.64 153.563 394.34 152.885C398.776 150.862 402.129 153.243 405.757 155.189V155.189ZM469.385 143.969C461.996 129.191 452.034 116.856 436.466 109.537C429.587 106.304 422.023 105.001 414.472 103.898C411.484 103.462 408.477 103.142 405.493 102.682C404.144 102.475 402.79 102.123 401.787 101.128C400.9 100.248 400.584 99.2017 401.085 98.0396C401.549 96.9651 402.631 96.3356 403.656 96.4466C419.714 98.1927 436.035 99.4859 449.35 109.547C463.002 119.861 473.042 132.759 477.958 148.906C478.692 151.32 478.939 153.856 478.632 156.389C478.449 157.903 477.796 159.179 475.982 159.224C474.324 159.267 473.616 158.144 473.301 156.737C472.343 152.459 471.458 148.16 469.385 143.969ZM386.267 295.93C390.842 299.87 395.577 303.593 401.271 306.029C401.717 306.22 402.14 306.461 402.588 306.649C403.682 307.106 404.924 307.52 404.466 309.005C404.042 310.38 402.867 310.787 401.457 310.7C395.857 310.359 391.169 307.823 386.759 304.864C383.025 302.358 379.549 299.506 375.569 296.514C373.52 302.255 370.996 307.571 363.438 305.281C356.953 303.315 356.812 297.718 356.537 292.168C352.733 293.244 349.205 294.387 347.593 298.219C346.989 299.654 345.882 300.25 344.328 299.751C342.3 299.101 341.375 297.568 341.465 295.646C341.525 294.358 342.07 293.074 343.152 292.168C347.192 288.788 351.652 286.323 357.15 285.652C364.879 284.709 371.861 286.129 378.118 290.675C380.37 292.312 382.824 293.695 385.492 295.354C385.955 295.652 386.111 295.792 386.267 295.93ZM268.593 58.076C276.556 61.3748 284.235 64.6882 289.593 71.324C289.772 71.5443 290.049 71.7007 290.194 71.935C291.137 73.4518 292.524 75.1749 291.111 76.7753C289.456 78.6486 287.557 77.2165 286.271 76.0343C280.585 70.8088 273.926 67.2062 266.449 64.9399C251.857 60.5161 237.21 59.5811 222.32 63.876C216.325 65.6053 210.459 67.6883 204.443 69.334C202.573 69.8458 200.591 70.301 199.699 68.0616C198.772 65.7342 200.66 64.6574 202.421 63.7818C209.31 60.3569 216.542 57.6382 224.135 56.1937C234.008 54.3159 243.972 53.4134 254.096 55.0423C258.925 55.8193 263.689 56.692 268.593 58.076ZM127.643 142.754C137.65 137.602 146.69 131.242 156.968 126.951C158.659 126.245 160.167 125.149 161.784 124.272C163.573 123.302 165.355 123.376 166.336 125.191C167.235 126.857 166.789 128.622 164.859 129.459C153.138 134.539 142.832 141.937 131.555 147.769C121.546 152.945 114.572 160.847 112.389 171.946C111.832 174.78 111.037 177.576 110.264 180.368C109.977 181.407 109.753 182.813 108.241 182.74C106.756 182.667 106.728 181.22 106.414 180.198C105.244 176.396 106.001 172.553 106.836 168.889C109.485 157.263 117.06 149.008 127.643 142.754ZM135.262 171.85C136.249 171.209 137.046 170.662 137.886 170.184C139.048 169.523 140.423 169.202 141.388 170.198C142.512 171.357 141.535 172.491 140.641 173.368C138.052 175.907 135.313 178.311 132.792 180.909C124.958 188.983 116.774 196.76 110.118 205.827C104.788 213.089 102.251 221.099 102.079 229.876C102.039 232.11 101.982 234.344 101.908 236.577C101.851 238.195 100.977 239.285 99.2754 239.425C97.6307 239.56 96.9511 238.38 96.397 237.096C95.9377 236.032 95.8847 234.945 95.7669 233.828C94.121 218.215 100.824 205.531 111.121 194.124C118.405 186.055 126.636 178.904 135.262 171.85H135.262ZM320.291 208.183C306.193 207.36 292.365 207.424 278.538 207.536C256.867 207.712 236.46 212.279 218.031 223.577C216.978 224.222 216.892 224.205 214.894 224.09C216.823 221.043 219.718 219.142 222.644 217.386C237.137 208.69 252.964 204.365 270.109 203.707C277.945 203.406 285.785 203.067 293.594 203.359C308.821 203.926 324.059 204.667 339.097 207.294C340.362 207.515 341.55 208.135 342.693 208.888C335.233 209.767 327.925 208.41 320.291 208.183ZM103.98 395.107C102.264 395.858 100.73 396.454 99.0534 396.668C98.2178 396.774 97.2573 397.417 96.6743 396.45C96.0531 395.42 96.9452 394.694 97.646 394.061C100.789 391.221 103.442 388.004 105.847 384.587C112.582 375.021 117.554 364.861 118.319 353.113C118.54 349.707 119.579 346.35 120.24 342.97C120.51 341.584 121.144 340.246 122.76 340.344C124.525 340.452 125.531 341.796 125.567 343.445C125.658 347.548 125.968 351.693 125.513 355.752C124.798 362.13 123.775 368.566 120.764 374.382C116.686 382.261 112.099 389.878 103.98 395.107ZM395.196 80.7092C383.254 76.7377 371.927 77.9289 360.884 82.9951C359.141 83.7945 357.95 85.1392 356.717 86.4548C355.389 87.8725 353.857 88.1393 352.325 86.9616C350.765 85.7625 350.323 84.295 351.754 82.5971C355.395 78.2781 360.357 75.7579 365.653 74.092C377.149 70.4748 388.731 70.4316 400.055 74.8728C403.471 76.2125 406.649 78.1032 409.932 79.7496C410.189 79.8785 410.435 80.0511 410.639 80.2479C411.948 81.5052 413.597 82.8544 412.368 84.7569C411.173 86.6067 409.114 86.2368 407.364 85.4369C403.474 83.6599 399.522 82.0456 395.196 80.7092ZM214.104 121.099C230.164 121.817 245.059 125.352 258.155 134.265C259.024 134.856 259.947 135.468 260.376 136.457C260.879 137.619 261.045 138.779 260.127 139.888C259.259 140.937 258.197 140.54 257.165 140.326C253.641 139.596 250.807 137.464 247.688 135.944C238.876 131.652 229.52 129.295 219.785 127.933C214.223 127.155 208.686 127.168 203.115 127.44C202.333 127.477 201.538 127.503 200.764 127.414C199.339 127.25 197.895 126.83 197.855 125.21C197.819 123.789 198.749 122.788 200.296 122.455C204.286 121.595 208.255 120.573 212.418 121.329C212.87 121.412 213.376 121.219 214.104 121.099ZM369.04 189.56C369.635 189.738 370.021 189.815 370.393 189.928C373.34 190.825 374.852 192.561 373.967 194.434C372.747 197.013 370.593 195.916 368.697 195.236C362.232 192.917 355.474 192.046 348.655 191.344C336.913 190.137 325.164 189.178 313.343 188.931C309.741 188.856 306.124 188.617 302.509 188.542C301.333 188.517 299.947 188.457 299.723 187.062C299.505 185.709 300.893 185.464 301.869 185.191C303.363 184.774 304.904 184.366 306.446 184.276C313.376 183.875 320.316 183.307 327.258 183.688C341.285 184.457 355.409 184.689 369.04 189.56ZM257.494 108.73C255.397 107.903 252.657 107.926 253.169 104.907C253.497 102.979 255.544 102.451 259.172 103.455C270.35 106.547 280.249 111.547 286.953 121.026C289.699 124.908 291.584 129.224 293.19 133.633C293.5 134.484 293.404 135.477 293.447 136.406C293.511 137.817 293.2 138.976 291.47 139.376C289.786 139.766 288.941 139.008 288.25 137.685C286.681 134.681 285.228 131.6 283.376 128.757C278.137 120.711 270.422 115.163 262.137 110.245C260.789 109.444 259.239 109.145 257.494 108.73ZM306.061 447.43C299.927 447.017 294.056 446.825 288.18 446.986C285.645 447.056 283.119 447.366 280.585 447.502C279 447.587 277.551 447.167 277.253 445.469C276.967 443.829 277.704 442.653 279.449 441.972C283.6 440.353 287.778 439.632 292.331 440.132C297.578 440.709 302.897 440.647 308.171 440.112C313.774 439.544 319.301 439.933 324.777 441.112C325.447 441.259 326.094 441.49 326.699 441.799C328.241 442.584 329.587 443.635 329.07 445.506C328.541 447.421 326.83 447.796 325.066 447.466C320.004 446.519 314.902 447.155 309.824 447C308.667 446.965 307.498 447.262 306.061 447.43Z" fill="black"/>
<path d="M234 288.367C233.226 289.401 232.438 290.315 231.242 289.743C229.939 289.122 230.242 287.889 230.499 286.766C233.25 274.715 245.865 265.98 258.766 267.92C265.8 268.978 271.576 272.841 275.852 278.41C276.657 279.457 277.076 280.725 276.965 282.101C276.893 282.989 276.781 283.854 275.703 284.044C274.738 284.215 273.979 283.79 273.666 282.863C271.836 277.459 258.032 272.702 253.079 273.88C245.588 275.663 238.944 278.863 235.327 285.948C234.943 286.702 234.513 287.436 234 288.367ZM329.383 67.0431C326.465 62.3592 323.113 58.2425 319.44 54.3467C318.487 53.3366 316.96 52.0905 318.105 50.7452C319.283 49.3623 321.019 50.3035 322.389 51.0355C331.509 55.9067 336.554 63.9018 340.554 72.6682C342.019 75.879 342.476 79.2737 342.345 82.7659C342.254 85.2009 341.146 87.1847 338.651 87.47C335.81 87.7951 335.166 85.3175 334.944 83.304C334.308 77.5556 332.501 72.2147 329.383 67.0431ZM386.479 295.899C386.111 295.791 385.955 295.652 385.67 295.42C385.01 294.431 384.523 293.53 384.372 292.48C382.907 282.242 370.385 276.04 360.327 279.796C355.356 281.654 349.963 282.637 346.058 286.597C345.055 287.614 343.353 287.669 342.354 286.573C341.445 285.575 341.85 284.245 342.857 283.288C345.88 280.413 349.38 278.157 353.396 276.808C360.338 274.475 367.374 272.491 374.855 274.489C381.155 276.172 388.946 284.076 389.362 292.268C389.445 293.905 388.6 295.353 386.479 295.899ZM287.547 47.3057C297.748 49.447 304.795 55.3736 310.587 62.9814C312.89 66.0066 315.128 69.0678 316.726 72.4955C317.197 73.5045 317.628 74.5583 317.595 75.7198C317.567 76.6766 317.576 77.6341 316.458 78.0808C315.218 78.5763 314.383 77.9491 313.719 77.055C311.63 74.2388 309.516 71.4383 307.499 68.5767C301.796 60.4808 293.981 55.2783 284.074 52.8573C283.051 52.6068 282.037 52.1544 281.149 51.6039C279.892 50.8248 279.979 49.5148 280.185 48.3057C280.406 47.0075 281.553 46.7799 282.656 46.8314C284.21 46.9038 285.804 46.6622 287.547 47.3057ZM319.042 311.513C318.087 304.74 317.311 298.211 318.951 291.667C320.072 287.197 321.792 282.966 324.401 279.093C324.865 278.403 325.56 277.813 326.259 277.318C327.18 276.666 328.236 275.772 329.422 276.536C330.846 277.453 330.064 278.76 329.543 279.804C326.307 286.284 324.424 293.15 324.369 300.261C324.333 304.749 325.465 309.258 326.227 313.734C326.758 316.851 325.939 319.651 324.854 323.203C321.158 319.582 320.255 315.602 319.043 311.513H319.042ZM199.079 155.891C191.921 157.521 185.544 160.302 179.486 163.797C179.151 163.99 178.807 164.17 178.456 164.335C176.991 165.021 175.384 165.626 174.219 164.093C173.149 162.686 173.729 161.297 174.967 160.089C179.468 155.692 185.052 153.056 191.11 151.338C197.026 149.659 203.109 148.776 209.313 148.922C210.178 148.942 211.046 149.13 211.9 149.297C214.001 149.709 215.409 150.913 214.968 152.987C214.53 155.037 212.604 154.741 210.893 154.639C206.971 154.405 203.173 155.409 199.079 155.891ZM388.784 136.625C384.071 137.916 379.586 139.185 375.473 141.455C373.883 142.331 372.004 142.665 370.787 140.877C369.602 139.134 370.074 137.569 371.844 136.26C376.41 132.882 381.962 131.861 387.316 130.517C393.908 128.862 400.66 128.806 407.387 129.95C409.037 130.231 410.555 130.929 411.976 131.772C412.709 132.207 413.65 132.639 413.302 133.687C412.98 134.659 412.02 134.702 411.112 134.713C406.511 134.769 401.899 134.517 397.327 135.285C394.553 135.751 391.762 136.133 388.784 136.625ZM152.581 417.217C149.159 418.929 145.708 419.966 142.145 420.615C140.871 420.847 139.189 421.235 138.49 419.702C137.827 418.249 139.331 417.51 140.268 416.829C142.211 415.417 144.196 413.994 146.355 412.927C153.928 409.186 158.808 403.129 162.633 396.147C163.452 394.653 164.304 393.009 166.239 393.629C168.218 394.263 167.864 396.135 167.444 397.732C165.263 406.05 160.837 412.828 152.581 417.217ZM313.834 109.837C313.16 108.465 312.536 107.3 312.038 106.089C311.591 105.004 310.704 103.745 312.179 102.833C313.592 101.96 314.542 103.161 315.478 103.905C317.995 105.908 319.809 108.409 321.221 111.229C324.987 118.75 324.942 126.687 324.022 134.685C323.777 136.812 322.291 138.261 319.774 138.031C317.782 137.85 316.899 135.859 317.318 133.114C318.478 125.508 317.804 118.101 314.503 111.005C314.345 110.665 314.128 110.351 313.834 109.837ZM466.662 388.757C468.838 390.683 471.176 392.06 473.548 393.362C475.317 394.332 475.921 395.776 475.134 397.353C474.345 398.932 472.723 398.841 471.044 398.328C460.478 395.096 451.788 384.227 451.467 373.728C451.447 373.076 451.408 372.411 451.509 371.77C451.712 370.468 451.956 368.993 453.629 368.801C455.279 368.612 455.664 370.058 456.008 371.192C457.317 375.509 458.877 379.678 461.652 383.412C463.088 385.344 464.693 387.053 466.662 388.757ZM133.26 398.207C130.142 400.146 127.254 402.072 123.53 402.233C122.36 402.284 121.317 402.288 120.81 401.149C120.339 400.095 120.781 399.187 121.542 398.341C122.915 396.815 124.883 396.081 126.49 394.874C131.824 390.87 135.836 385.934 138.249 379.848C138.765 378.544 139.451 377.297 140.122 376.054C140.609 375.15 141.101 374.051 142.473 374.383C143.747 374.691 143.788 375.775 143.911 376.841C144.596 382.79 142.161 387.764 138.681 392.437C137.143 394.501 135.368 396.359 133.26 398.207ZM254.769 402.269C250.465 408.676 246.749 415.082 246.379 422.74C246.303 424.333 245.758 425.784 243.616 425.597C241.335 425.4 241.148 423.752 241.257 422.096C241.705 415.237 243.066 408.671 247.784 403.109C250.852 399.493 253.467 395.521 257.135 392.381C258.076 391.576 259.123 390.486 260.427 391.515C261.659 392.485 261.022 393.819 260.325 394.816C258.589 397.294 256.712 399.681 254.769 402.269ZM260.313 224.396C246.114 227.72 232.972 232.657 222.031 241.92C220.65 240.14 221.884 239.296 222.605 238.4C227.206 232.68 234.033 230.06 240.5 227.035C250.127 222.531 260.587 221.146 271.12 220.045C274.735 219.668 278.327 219.506 281.945 219.547C283.054 219.559 284.4 219.313 284.767 221.488C276.683 222.556 268.41 222.114 260.313 224.396ZM364.306 414.979C362.703 409.426 360.204 404.527 356.984 399.928C355.957 398.461 353.873 396.599 355.518 395.055C357.363 393.323 358.582 396.061 360.013 396.878C362.776 398.457 364.491 401.077 366.055 403.594C369.333 408.869 370.685 414.765 371.136 420.849C371.213 421.879 371.015 422.874 370.636 423.856C370.277 424.789 369.819 425.521 368.668 425.666C367.459 425.819 366.639 425.403 365.973 424.419C365.2 423.273 364.852 422.081 364.9 420.729C364.966 418.871 365.004 417.005 364.306 414.979ZM293.218 275.17C298.141 284.53 299.772 294.127 297.609 304.243C297.447 304.997 297.425 305.773 296.538 306.05C295.506 306.371 294.882 305.709 294.353 305.019C293.537 303.955 293.038 302.756 292.758 301.462C291.4 295.172 291.428 288.75 290.796 282.392C290.611 280.526 290.32 278.719 289.791 276.925C289.506 275.958 289.067 274.8 290.252 274.169C291.324 273.598 292.325 274.121 293.218 275.17ZM349.941 122.357C352.244 119.941 353.774 117.137 356.441 115.299C357.538 114.543 358.748 113.562 360.13 114.636C361.492 115.694 361.158 117.015 360.559 118.444C358.995 122.167 356.013 124.937 353.619 128.097C351.448 130.964 349.097 133.708 346.902 136.56C345.838 137.942 344.633 139.152 342.786 138.275C340.744 137.305 340.999 135.484 341.912 133.917C344.235 129.927 346.52 125.9 349.941 122.357ZM373.159 430.385C374.398 424.659 373.557 419.218 372.787 413.775C372.592 412.395 372.262 410.997 372.352 409.629C372.417 408.656 372.031 407.19 373.667 406.867C375.31 406.542 375.949 407.703 376.38 408.877C377.187 411.073 378.064 413.265 378.603 415.525C380.244 422.401 379.267 429.2 377.62 435.951C377.24 437.51 375.998 437.994 374.504 437.905C372.804 437.804 372.254 436.593 372.035 435.22C371.771 433.565 372.891 432.184 373.159 430.385ZM151.265 307.99C154.172 305.779 154.972 308.107 155.696 309.824C158.025 315.349 159.636 321.092 160.92 326.912C161.421 329.177 161.778 331.473 162.096 333.769C162.249 334.874 162.319 336.198 160.933 336.643C159.317 337.163 159.013 335.687 158.57 334.755C154.937 327.112 152.026 319.25 150.739 310.901C150.586 309.904 150.967 309.078 151.265 307.99ZM249.679 191.177C236.877 195.359 225.429 201.626 214.271 208.448C216.247 200.464 248.23 184.808 264.562 186.802C259.464 189.292 254.41 189.43 249.679 191.177ZM434.873 396.596C439.055 400.235 443.491 402.924 449.125 403.49C451.118 403.69 452.646 404.777 452.381 407.027C452.119 409.249 450.239 408.81 448.756 408.824C440.421 408.901 432.105 403.715 429.052 396.656C428.351 395.038 428.311 393.502 428.955 391.671C431.594 392.723 432.966 394.815 434.873 396.596ZM340.491 364.562C339.825 366.787 340.117 369.075 338.298 370.732C337.39 371.559 336.718 372.875 335.184 372.152C333.483 371.352 334.14 369.856 334.548 368.705C335.358 366.421 336.406 364.275 336.106 361.709C335.538 356.844 334.022 352.287 331.977 347.829C331.497 346.783 330.05 345.403 331.595 344.343C333.006 343.375 334.572 344.116 335.939 345.003C338.043 346.368 338.969 348.447 339.433 350.642C340.387 355.155 341.906 359.656 340.491 364.562ZM268.315 392.573C269.077 391.874 269.743 391.459 270.534 392.066C271.153 392.54 271.167 393.288 270.92 393.876C270.375 395.169 269.824 396.497 269.012 397.64C264.35 404.201 261.187 411.368 259.201 419.032C258.845 420.402 258.137 421.655 256.466 421.392C254.931 421.149 254.877 419.775 254.778 418.502C254.507 415.036 255.48 411.801 257.003 408.769C259.93 402.94 263.675 397.591 268.315 392.573ZM353.155 416.013C351.987 410.718 348.654 406.472 347.253 401.504C346.974 400.515 346.542 399.565 346.277 398.574C346.01 397.572 345.742 396.419 346.968 395.847C348.212 395.267 349.738 395.363 350.376 396.567C353.968 403.344 358.671 409.744 358.812 417.765C358.84 419.38 358.936 421.029 356.45 421.174C354.065 421.312 353.738 419.871 353.576 418.16C353.516 417.516 353.315 416.884 353.155 416.013ZM344.291 315.674C344.513 313.442 345.978 314.314 347.031 314.585C349.239 315.152 351.042 316.485 352.81 317.792C357.215 321.046 362.01 323.717 366.771 326.445C367.877 327.079 369.157 327.8 368.523 329.241C367.901 330.653 366.437 330.719 364.999 330.493C361.908 330.009 359.352 328.391 356.913 326.723C352.308 323.573 348.057 320.008 344.291 315.674ZM282.606 396.749C281.346 403.389 278.197 409.332 277.414 415.872C277.262 417.137 276.361 418.368 274.649 418.299C272.721 418.222 272.659 416.623 272.532 415.433C272.011 410.539 273.985 406.113 275.689 401.66C276.458 399.649 277.343 397.675 278.244 395.712C278.786 394.534 279.666 393.555 281.171 393.893C282.547 394.202 282.859 395.299 282.606 396.749ZM240.99 408.178C240.479 411.886 238.14 414.676 236.958 417.928C235.987 420.602 235.374 422.92 237.321 425.547C238.422 427.034 239.33 429.247 237.026 430.781C235.618 431.718 233.027 429.994 231.961 427.565C229.241 421.361 232.444 411.41 238.416 407.535C239.388 406.905 240.366 406.428 240.99 408.178ZM343.417 409.883C343.934 412.212 344.47 414.31 343.384 416.398C342.846 417.433 342.294 418.403 340.823 418.318C339.338 418.23 338.584 417.124 338.602 416.089C338.692 411.006 335.517 406.685 335.099 401.747C335.044 401.099 334.921 400.452 334.932 399.806C334.954 398.614 335.284 397.519 336.724 397.28C338.225 397.031 339.036 397.756 339.51 399.124C340.733 402.654 342.069 406.147 343.417 409.883ZM316.397 399.464C318.65 397.516 320.202 397.619 321.428 399.766C324.105 404.454 325.756 409.525 327.318 414.621C327.665 415.755 327.209 416.643 326.238 417.264C325.213 417.92 324.38 417.348 323.601 416.732C322.75 416.06 322.215 415.177 321.79 414.222C320.111 410.451 318.412 406.688 316.757 402.907C316.307 401.88 315.867 400.817 316.397 399.464ZM306.014 400.91C306.093 399.463 305.829 398.012 307.68 397.904C309.256 397.813 309.973 399.027 310.23 400.194C310.627 401.998 310.819 403.866 310.859 405.713C310.954 409.97 311.765 414.198 311.376 418.479C311.272 419.63 310.977 420.582 309.745 420.759C308.551 420.931 307.678 420.158 307.248 419.155C306.24 416.803 306.26 414.259 306.108 411.792C305.89 408.263 306.027 404.715 306.014 400.91ZM365.245 229.36C360.644 227.953 356.07 228.48 351.63 227.856C349.216 227.516 346.838 226.975 344.524 226.237C343.674 225.967 342.846 225.635 342.904 224.143C355.274 224.737 367.624 225.065 379.384 229.518C374.722 230.527 370.118 229.651 365.245 229.36ZM257.904 329.013C257.688 327.237 258.855 326.387 259.924 325.627C264.475 322.388 269.096 319.239 274.217 316.838C275.529 316.222 276.851 315.512 278.38 316.373C278.691 317.901 277.819 318.845 276.646 319.638C271.86 322.876 267.081 326.123 262.277 329.337C260.85 330.292 259.352 331.07 257.904 329.013ZM291.768 358.945C290.64 358.427 289.902 357.765 289.848 356.762C289.609 352.405 289.187 348.035 290.124 343.705C290.296 342.912 290.753 342.148 291.205 341.445C291.663 340.735 292.244 340.017 293.308 340.252C294.347 340.481 294.562 341.278 294.674 342.162C295.303 347.081 295.146 351.997 294.543 356.9C294.383 358.199 293.588 359.135 291.768 358.945ZM290.161 412.602C290.758 408.503 291.218 404.631 291.972 400.811C292.325 399.024 292.735 397.089 294.313 395.66C295.598 396.665 295.215 397.762 295.206 398.71C295.16 403.725 295.534 408.752 294.658 413.748C294.417 415.121 294.713 416.825 292.76 417.031C290.524 417.266 290.561 415.361 290.202 413.962C290.111 413.608 290.161 413.221 290.161 412.601V412.602ZM253.248 313.694C255.157 313.516 256.8 313.293 258.451 313.177C259.314 313.116 260.379 313.046 260.684 314.071C260.931 314.899 260.582 315.782 259.908 316.362C259.346 316.847 258.64 317.309 257.92 317.48C253.059 318.636 248.392 318.427 244.264 315.337C243.261 314.586 242.116 313.639 242.762 312.319C243.494 310.824 244.882 311.945 245.893 312.123C248.277 312.543 250.424 313.956 253.248 313.694ZM358.604 314.34C359.312 311.711 361.602 312.261 363.16 312.386C366.518 312.657 369.737 312.702 372.902 311.426C373.872 311.035 375.163 310.725 375.69 311.982C376.19 313.174 375.465 314.072 374.299 314.687C370.208 316.843 365.667 316.525 361.253 316.831C359.793 316.932 359.086 315.777 358.604 314.34ZM200.452 294.728C200.139 293.161 201.035 293.457 201.721 293.841C203.481 294.827 205.254 295.82 206.892 296.976C208.96 298.436 211.136 299.12 213.698 298.584C214.831 298.347 216.165 297.949 216.383 299.68C216.559 301.078 216.201 302.31 214.519 302.682C211.672 303.311 209.035 302.605 206.758 301.054C204.311 299.389 201.916 297.584 200.452 294.728ZM226.573 320.629C226.687 321.697 226.088 322.229 225.374 322.513C222.446 323.68 219.486 324.774 216.491 325.911C215.726 322.432 221.997 319.215 226.572 320.629H226.573Z" fill="black"/>
</svg>
