<svg xmlns="http://www.w3.org/2000/svg" xml:space="preserve" viewBox="0 0 1024 1024" fill="#fff"><path d="M290.853 634.326c-3.416-10.662-5.228-21.312-6.969-31.953-.343-2.1-2.663-5.53 1.608-6.653 3.705-.974 4.775 1.79 5.977 4.524 3.294 7.49 5.462 15.35 7.707 23.17 7.42 25.832 13.338 52.051 19.476 78.202 4.643 19.78 9.474 39.51 19.048 57.504 7.584 14.253 16.893 27.509 29.355 38.146 3.408 2.909 6.238 6.489 10.247 8.75-2.299-5.577-4.745-11.1-6.868-16.747-4.256-11.323-5.427-23.197-5.782-35.174-.05-1.691-.554-3.902 2.082-4.409 2.606-.5 3.69 1.287 4.232 3.282 1.478 5.447 3.152 10.882 4.063 16.434 2.316 14.116 8.469 26.706 16.14 38.357 15.553 23.621 38.035 39.367 62.46 52.715 25.753 14.072 53.7 16.466 81.944 13.768 16.178-1.546 32.716-4.97 46.085-15.774 5.154-4.164 9.682-9.115 14.393-13.81 14.754-14.707 31.655-26.896 47.322-40.525 11.232-9.77 19.374-21.906 24.706-35.818 8.42-21.971 12.703-44.952 16.813-68.022 3.228-18.117 7.47-36.052 11.245-54.072 3.128-14.932 6.087-29.902 9.426-44.786 1.193-5.32 3.072-10.518 5.002-15.634 4.962-13.152 7.408-26.806 8.925-40.714 2.555-23.435.751-46.734-1.712-70.035-.26-2.468-.177-5.006.066-7.48.163-1.654.93-3.429 2.966-3.418 1.779.009 2.233 1.53 2.65 3.102 4.286 16.117 6.968 32.474 6.824 49.175-.068 7.929.382 15.845.38 23.773-.006 20.455-3.958 39.922-11.14 58.925-3.422 9.053-4.431 18.696-6.145 28.148-2.456 13.543-4.586 27.146-7.914 40.519-.155.62-.153 1.28-.271 2.352 7.523-5.133 14.418-10.17 17.572-18.892 1.577-4.358 1.374-8.936 1.6-13.29 1.499-28.934 9.774-56.15 19.838-82.998 3.5-9.338 6.443-18.885 9.9-28.24.713-1.928 1.116-5.16 4.27-4.691 2.913.433 2.552 3.382 3.23 5.565 2.12 6.823-.891 13.144-1.848 19.61-1.857 12.553-7.046 24.188-10.93 36.18-5.998 18.519-10.417 37.371-12.62 56.753-.509 4.475-.689 8.926-.951 13.397-.517 8.802-6.792 14.214-12.345 19.855-5.14 5.22-10.786 9.925-18.1 12.04-2.778.805-3.99 2.656-4.655 5.718-4.26 19.621-7.379 39.489-12.78 58.866-6.8 24.4-16.835 46.952-35.726 64.675-7.779 7.298-16.02 14.015-24.54 20.408-11.207 8.41-21.692 17.708-30.749 28.336-8 9.39-17.653 15.325-29.326 18.723-16.054 4.674-32.277 6.986-49.08 7.461-41.07 1.16-76.088-13.172-106.404-39.814-11.074-9.731-23.766-17.023-35.254-26.028-19.125-14.99-36.168-31.99-47.844-53.639-6.726-12.47-12.155-25.519-15.697-39.277-3.186-12.37-6.205-24.784-9.32-37.173-.854-3.399-2.6-5.348-6.587-5.454-19.788-.528-39.514-17.04-43.722-36.35-3.81-17.487-9.986-34.204-17.68-50.258-11.954-24.95-17.976-50.979-16.828-78.658.16-3.846 1.517-7.432 2.103-11.704-3.39.683-5.628 2.228-7.351 4.8-8.441 12.593-17.086 25.07-19.4 40.608-.17 1.144-.39 2.7-2.27 3.337-2.904-1.7-2.828-4.752-3.015-7.64-.73-11.269 3.944-21.029 8.543-30.849 7.354-15.7 20.123-24.66 36.167-29.819 8.223-2.644 16.443-5.34 24.27-9.077 2.135-1.02 4.85-1.985 6.55-.108 1.867 2.06-.14 4.33-1.34 6.26-2.453 3.943-5.699 6.859-10.34 8.105-3.024.811-5.898 2.074-8.919 4.124 9.022 7.818 17.016 16.2 24.59 24.947 4.801 5.545 9.343 11.219 15.655 15.226 2.977 1.89 4.872 1.224 6.654-1.44 1.937-2.894 3.317-6.185 5.941-8.592.982-.9 2.1-1.826 3.552-.978 1.49.87.925 2.157.732 3.517-.733 5.163-2.875 9.88-4.585 14.711-1.936 5.468-6.525 7.414-12.063 5.333-3.742-1.407-7.403-3.165-10.314-5.977-12.355-11.936-23.75-24.662-32.007-39.888-.844-1.554-1.405-3.262-2.462-5.763-1.096 5.155-3.66 8.666-6.577 12.044-1.877 2.174-2.367 4.989-2.429 7.947-.503 24.16 4.576 46.999 14.482 69.095 8.286 18.479 16.452 37.098 20.657 57.136 3.006 14.326 17.91 22.59 28.517 25.088 3.415.804 4.867-.884 4.055-4.617-2.47-11.348-4.728-22.742-7.16-34.473z"/>
    <path d="M436.587 662.653c9.6-13.696 20.629-25.653 32.605-36.751 3.43-3.178 3.987-3.244 8.39-3.731 2.01 3.512.282 6.67-1.664 9.192-5.605 7.264-5.934 15.628-5.91 24.17.008 2.83.446 5.79-.219 8.466-1.244 5.006 1.403 6.512 5.418 7.546 5.981 1.54 12.192.919 18.226 2.397 8.726 2.138 16.512 5.88 23.732 11.134 3.48 2.532 6.98 5.666 11.242 6.284 5.513.799 11.322 1.314 16.107-3.048 11.155-10.167 24.586-16.992 37.11-25.157 6.488-4.23 7.562-7.957 5.162-15.178-.944-2.839-2-5.647-2.783-8.53-.631-2.324-.718-4.795 1.69-6.252 2.42-1.464 4.53-.376 6.187 1.525 1.959 2.248 3.956 4.5 5.611 6.969 11.23 16.75 20.963 34.331 29.004 52.837.199.457.512.884.617 1.36.541 2.444 2.792 5.372-.507 7.119-3.309 1.751-4.608-1.555-6.109-3.605-7.943-10.852-15.828-21.749-24.062-33.084-12.835 10.63-28.855 16.331-40.08 28.8-12.91 14.34-28.928 11.958-42.68 2.806-3.461-2.303-6.667-4.991-10.138-7.279-6.364-4.194-13.134-7.097-21.06-6.347-4.537.429-8.94-.635-13.156-2.253-7.722-2.965-10.065-6.996-8.36-15.176.916-4.399.329-8.89.885-13.709-4.124 4.602-8.34 9.127-12.352 13.825-5.832 6.825-11.478 13.81-17.299 20.645-1.238 1.455-2.707 3.433-5.007 2.16-2.172-1.201-1.585-3.463-1.172-5.4 1.703-7.985 6.111-14.676 10.572-21.735zM827.07 458.89c-10.807-14.955-23.423-27.634-37.756-38.65-4.963-3.815-10.054-7.548-13.188-13.21 2.807-4.118 6.194-5.188 10.508-3.394 7.677 3.191 13.726 8.746 19.816 14.088 17.411 15.272 31.433 33.358 42.833 53.459 9.613 16.948 13.608 35.448 15.146 54.738 1.748 21.915-1.05 43.617-2.273 65.387-.438 7.792-1.394 15.352.752 23.157 2.114 7.687 6.105 13.5 12.65 17.82 1.935 1.276 3.592 2.969 5.483 4.321 2.554 1.828 4.221 4.1 2.73 7.187-1.542 3.192-4.657 2.85-7.463 2.208-10.277-2.353-17.116-9.15-22.398-17.803-4.137-6.776-5.06-14.2-4.372-22 .598-6.773.61-13.613.818-20.383.45-14.614 2.87-29.075 2.357-43.772-1.047-29.98-6.781-58.358-25.642-83.152zM294.683 470.703c-.941.416-1.568.645-2.17.93-1.724.818-3.722 1.496-5.11-.018-1.625-1.775.13-3.42 1.151-4.841 4.347-6.047 8.676-11.976 11.376-19.13 4.436-11.756 4.769-24.015 5.704-36.225.708-9.246 3.012-18.525 1.804-27.725-1.195-9.102.105-18.252-1.614-27.306-.723-3.81-.12-7.872-.12-12.492-4.895 6.508-9.368 12.849-14.244 18.862-11.44 14.106-23.395 27.704-39.127 37.354-2.095 1.285-3.736 3.29-5.754 4.728-1.643 1.17-3.48 2.02-5.434.265-1.808-1.626-1.091-3.314-.27-4.979 2.904-5.888 8.377-9.426 13.02-13.614 10.311-9.302 18.87-20.092 27.629-30.758 8.533-10.39 17.64-20.317 25.977-30.857 5.494-6.944 11.527-13.304 17.747-19.54 1.292-1.295 2.542-2.66 3.98-3.775 1.714-1.328 3.666-2.707 5.875-1.143 2.24 1.587 1.447 3.785.753 5.89-2.3 6.971-7.433 12.174-11.532 17.96-4.877 6.885-7.526 13.835-7.15 22.564.88 20.393 3.334 40.765 2.018 61.212-1.09 16.949-3.263 33.713-11.434 49.054-3.019 5.667-6.378 10.963-13.075 13.584zM157.785 549.287c.98 11.925 7.407 21.179 12.04 31.258 12.541 27.29 12.473 54.261-4.316 80.165-1.425 2.197-3.36 3.62-5.619 4.775-1.741.89-3.547 1.382-5.122-.002-1.602-1.408-1.354-3.376-.528-5.08 2.54-5.239 5.363-10.345 7.807-15.626 9.365-20.232 8.147-40.47-3.033-59.17-9.367-15.67-14.27-31.95-14.4-49.99-.104-14.16.6-28.13 3.766-42.085 3.663-16.155 12.11-29.38 22.505-41.658 6.223-7.35 12.757-14.457 20.9-19.824.972-.641 1.87-1.424 2.904-1.94 2.067-1.033 4.596-2.656 6.408-.563 1.875 2.166-.31 4.268-1.7 6.057-8.265 10.637-16.506 21.292-24.86 31.858-9.691 12.255-14.329 26.347-16.271 41.693-1.678 13.256-1.474 26.458-.481 40.132zM460.847 443.857c10.729 3.74 15.83 12.3 20.031 21.496 2.097 4.592-.083 7.07-5.08 6.42-12.813-1.668-25.537-4.795-38.572-3.333-11.844 1.329-23.936.97-35.5 4.092-6.803 1.837-12.399 6.255-17.025 11.658-2.702 3.155-5.142 6.546-7.966 9.584-2.545 2.738-6.472 5.533-9.505 3.697-3.205-1.94-1.739-6.517-.64-10.047 1.49-4.791 5.246-7.98 8.063-11.856 6.878-9.461 14.788-18.054 23.063-26.184 6.4-6.288 15.232-8.335 24.065-9.809 13.34-2.226 26.064.31 39.066 4.282zM819.847 640.206c6.296 11.611 16.106 19.369 25.932 27.075 2.372 1.86 4.635 3.785 6.63 6.025 1.53 1.717 2.593 3.664 1.06 5.84-1.476 2.098-3.586 1.397-5.424.59-7.96-3.499-15.261-8.096-21.929-13.662-12.217-10.2-20.24-23.26-25.368-38.146-3.636-10.554-5.376-21.668-5.877-32.659-1.823-40.062-15.832-75.432-39.39-107.401-2.084-2.827-4.124-5.714-5.275-9.004-.854-2.445-1.555-5.308 1.39-7.15 3.033-1.899 5.308-.013 6.865 2.114 17.757 24.256 36.603 47.897 42.429 78.657 2.534 13.382 3.946 26.873 5.531 40.372 1.92 16.334 4.467 32.588 13.426 47.35zM599.682 482.384c-6.454.87-12.524 1.629-18.56 2.602-6.53 1.052-9.015-1.431-7.655-7.896 2.007-9.534 7.542-16.135 16.6-19.684 11.699-4.584 23.713-5.221 36.233-4.228 11.372.903 22.519 2.19 31.508 9.4 10.987 8.811 18.676 20.128 20.52 34.606.224 1.763.528 3.848-1.632 4.803-2.332 1.031-3.744-.694-5.132-2.104-1.166-1.184-2.283-2.443-3.25-3.79-5.74-7.994-13.064-12.989-23.326-12.64-6.68.228-13.013-2.221-19.726-2.37-8.46-.188-16.821.18-25.58 1.301zM462.624 767.444c-10.351.738-20.298 1.2-30.08 3.121-1.857.365-3.754 1.072-5.03-.732-1.345-1.899-1.146-4.097-.08-6.146.714-1.37 1.78-2.488 3.255-2.96 7.882-2.525 15.564-5.984 24.042-5.995 19.487-.027 38.977-.07 58.461.186 7.082.093 14.177 1.637 21.221 1.364 5.448-.211 10.979-.042 16.371-.778 11.132-1.52 22.337-1.404 33.39-.565 12.852.976 23.968 6.48 31.751 17.41 1.236 1.737 2.132 3.507.91 5.5-1.283 2.094-3.496 1.775-5.428 1.416-3.642-.675-6.891-2.462-10.023-4.335-7.456-4.46-15.42-6.56-24.149-6.622-14.489-.104-28.915 1.531-43.418 1.08-23.583-.732-47.13-2.842-71.193-1.944zM391.24 541.28c-8.223 7.457-17.283 12.995-27.015 17.43-4.902 2.235-10.043 2.399-14.972.033-2.115-1.016-4.231-2.764-3.243-5.478.98-2.687 3.26-1.267 5.128-.862 8.836 1.917 14.877-3.614 20.98-8.326 11.716-9.05 21.319-20.552 33.426-29.189 13.37-9.537 28.167-13.322 44.295-10.157 10.588 2.077 18.164 9.385 25.188 17.011 2.161 2.346 2.432 5.865-.218 8.098-2.795 2.357-6.317 2.183-9.17-.29-3.887-3.367-7.158-7.466-11.912-9.777-.734-.357-1.46-.73-2.415-1.207-1.595 2.794-1.912 5.662-1.974 8.63-.174 8.392-3.876 15.063-9.269 16.846-7.527 2.49-14.528.073-20.189-6.966-3.2-3.98-4.745-8.664-5.742-14.308-8.406 5.519-15.336 12.134-22.898 18.512zM798.786 324.222c-9.445-9.74-21.055-15.647-32.427-21.887-2.364-1.298-4.466-2.883-6.459-4.649-2.648-2.346-2.143-5.077-.641-7.697 1.655-2.888 4.384-2.91 6.986-1.702 29.122 13.524 52.565 33.229 66.297 62.835 5.324 11.479 8.66 23.944 8.6 36.606-.09 19.43 7.238 35.049 21.094 48.085.847.797 1.615 1.681 2.39 2.55 1.756 1.969 2.177 4.085.575 6.35-1.719 2.43-3.909 1.543-5.775.468-9.215-5.308-16.492-12.66-22.671-21.288-6.236-8.707-7.638-18.71-7.786-28.84-.315-21.664-6.959-41.143-19.239-58.749-3.017-4.325-7.097-7.909-10.944-12.082zM315.718 162.835c-19.831 8.396-37.406 19.45-52.751 34.185-10.878 10.445-21.192 21.174-27.831 34.912-1.083 2.24-1.816 4.654-2.974 6.848-1.256 2.382-3.482 3.11-5.975 2.267-2.698-.914-2.31-2.937-1.94-5.315 2.658-17.132 13.137-29.493 24.876-41.046 17.671-17.39 37.028-32.391 60.366-41.57 17.212-6.77 34.679-12.312 53.352-13.692 8.089-.599 16.085-2.621 24.194-.681 3.657.874 8.593.381 8.988 5.967.278 3.933-2.387 5.494-9.429 5.273-21.314-.671-42.16 1.583-62.188 9.354-2.791 1.083-5.554 2.239-8.688 3.498zM689.046 276.852c14.044 9.134 22.3 22.355 27.72 37.24 3.454 9.482 3.664 19.83 4.541 29.888 1.284 14.719 1.444 29.503 2.206 44.248.865 16.733.588 33.45.803 50.175.009.666.063 1.345-.04 1.996-.428 2.68-.935 5.63-4.181 6.018-3.464.416-5.167-2.404-5.874-5.116-1.164-4.468-2.249-9.004-2.283-13.706-.094-13.1.146-26.22-.527-39.291-.816-15.857-2.714-31.657-3.603-47.511-.61-10.873-2.265-21.39-6.333-31.526-5.512-13.737-16.098-22.967-27.525-31.501-1.194-.891-2.306-1.902-3.382-2.933-.325-.311-.4-.881-.909-2.09 7.532-3.61 13.226.638 19.387 4.11zM797.098 256.837c-12.548-26.363-29.464-48.37-55.902-61.426-11.682-5.768-24.526-8.092-37.349-10.06-5.074-.778-10.181-1.349-15.249-2.169-2.29-.37-4.59-.998-6.293-2.772-1.507-1.57-2.043-3.437-1.192-5.51.787-1.917 2.625-3.04 4.365-2.842 27.27 3.115 54.986 5.422 77.598 23.37 23.183 18.4 40.232 41.41 48.58 70.217 1.247 4.305 1.667 8.83 1.146 13.349-.311 2.7-1.42 4.976-4.501 5.058-2.815.075-4.018-1.927-4.553-4.437-1.626-7.633-3.13-15.302-6.65-22.778zM655.95 527.93c7.768 7.03 15.81 13.672 25.478 18.018.758.34 1.476.77 2.237 1.105 1.858.816 3.968 1.555 3.19 4.203-.72 2.454-2.716 3.179-5.111 3.025-9.51-.61-17.47-5.133-24.96-10.412-6.34-4.47-12.243-9.559-19.001-14.896-3.481 10.242-7.766 19.726-20.601 15.64-11.013-3.508-11.253-13.492-11.72-23.394-6.46 1.92-12.451 3.96-15.188 10.796-1.025 2.56-2.906 3.622-5.544 2.733-3.444-1.16-5.016-3.895-4.863-7.324.103-2.298 1.028-4.588 2.866-6.204 6.86-6.03 14.434-10.427 23.77-11.624 13.125-1.683 24.982.85 35.608 8.96 3.824 2.92 7.992 5.387 12.523 8.347.785.532 1.05.78 1.316 1.026zM456.118 103.606c13.523 5.885 26.563 11.796 35.662 23.634.303.393.774.672 1.021 1.09 1.6 2.706 3.956 5.78 1.556 8.635-2.81 3.342-6.034.787-8.218-1.322-9.657-9.322-20.965-15.749-33.661-19.792-24.78-7.892-49.653-9.56-74.94-1.898-10.18 3.085-20.141 6.801-30.358 9.737-3.175.913-6.542 1.725-8.056-2.27-1.574-4.152 1.632-6.073 4.623-7.635 11.699-6.11 23.98-10.96 36.873-13.537 16.767-3.35 33.687-4.96 50.88-2.054 8.2 1.386 16.29 2.943 24.618 5.412zM216.761 254.669c16.993-9.19 32.345-20.537 49.798-28.192 2.872-1.26 5.433-3.215 8.179-4.779 3.038-1.73 6.063-1.599 7.729 1.64 1.527 2.972.77 6.12-2.508 7.613-19.903 9.062-37.405 22.26-56.556 32.665-16.997 9.234-28.839 23.33-32.546 43.13-.947 5.057-2.297 10.044-3.609 15.025-.488 1.854-.868 4.363-3.435 4.232-2.523-.13-2.57-2.711-3.104-4.534-1.987-6.783-.7-13.64.717-20.176 4.498-20.74 17.363-35.467 35.335-46.624zM229.698 306.576c1.677-1.144 3.03-2.119 4.456-2.972 1.974-1.18 4.309-1.752 5.948.025 1.908 2.068.249 4.09-1.269 5.654-4.396 4.53-9.048 8.819-13.328 13.453C212.2 337.14 198.302 351.015 187 367.19c-9.051 12.954-13.36 27.245-13.652 42.903a821.67 821.67 0 0 1-.291 11.954c-.096 2.887-1.58 4.83-4.47 5.08-2.793.242-3.947-1.863-4.888-4.155-.78-1.898-.87-3.837-1.07-5.83-2.795-27.853 8.588-50.48 26.074-70.83 12.37-14.395 26.347-27.153 40.996-39.736zM543.911 371.392c-23.941-1.467-47.424-1.354-70.904-1.153-36.801.314-71.457 8.46-102.752 28.616-1.788 1.151-1.935 1.12-5.328.916 3.277-5.436 8.192-8.827 13.162-11.96 24.612-15.513 51.488-23.229 80.603-24.403 13.308-.537 26.622-1.142 39.883-.622 25.858 1.012 51.734 2.334 77.272 7.02 2.148.395 4.165 1.501 6.106 2.844-12.669 1.569-25.078-.853-38.042-1.258zM176.577 704.86c-2.915 1.339-5.52 2.402-8.367 2.784-1.419.19-3.05 1.337-4.04-.388-1.055-1.838.46-3.133 1.65-4.263 5.337-5.066 9.842-10.805 13.927-16.9 11.437-17.066 19.881-35.191 21.179-56.15.376-6.076 2.14-12.065 3.262-18.094.46-2.472 1.536-4.86 4.28-4.684 2.998.192 4.705 2.59 4.767 5.531.155 7.32.681 14.714-.092 21.955-1.214 11.378-2.951 22.86-8.064 33.236-6.926 14.056-14.715 27.643-28.502 36.972zM671.112 143.983c-20.28-7.085-39.514-4.96-58.268 4.078-2.959 1.426-4.982 3.825-7.075 6.172-2.256 2.529-4.857 3.005-7.46.904-2.649-2.139-3.399-4.757-.969-7.786 6.183-7.705 14.61-12.201 23.603-15.173 19.522-6.453 39.19-6.53 58.421 1.393 5.801 2.39 11.198 5.763 16.772 8.7.437.23.855.538 1.202.889 2.222 2.243 5.022 4.65 2.936 8.044-2.03 3.3-5.526 2.64-8.498 1.213-6.606-3.17-13.317-6.05-20.664-8.434zM363.587 216.038c27.272 1.28 52.566 7.586 74.806 23.487 1.475 1.054 3.043 2.146 3.771 3.911.855 2.073 1.137 4.142-.422 6.12-1.474 1.872-3.278 1.163-5.03.781-5.985-1.302-10.797-5.105-16.094-7.816-14.965-7.657-30.852-11.863-47.385-14.292-9.444-1.388-18.847-1.365-28.308-.88-1.328.067-2.678.113-3.993-.046-2.42-.293-4.872-1.041-4.94-3.931-.06-2.536 1.519-4.321 4.145-4.916 6.776-1.534 13.517-3.357 20.586-2.008.767.147 1.627-.196 2.864-.41zM626.695 338.17c1.01.318 1.665.454 2.297.656 5.005 1.6 7.572 4.698 6.07 8.038-2.072 4.602-5.73 2.645-8.949 1.432-10.979-4.137-22.455-5.692-34.035-6.943-19.94-2.154-39.892-3.865-59.966-4.306-6.117-.134-12.26-.56-18.399-.694-1.996-.044-4.35-.151-4.73-2.64-.371-2.414 1.986-2.85 3.643-3.337 2.537-.745 5.155-1.473 7.774-1.632 11.768-.716 23.553-1.73 35.342-1.05 23.82 1.372 47.805 1.786 70.953 10.476zM437.27 193.972c-3.561-1.476-8.214-1.435-7.344-6.82.556-3.44 4.032-4.383 10.194-2.592 18.982 5.517 35.792 14.436 47.177 31.347 4.662 6.926 7.864 14.625 10.591 22.49.527 1.518.364 3.29.436 4.947.109 2.518-.418 4.585-3.356 5.299-2.86.695-4.296-.657-5.469-3.016-2.664-5.36-5.132-10.856-8.276-15.928-8.898-14.354-21.999-24.252-36.068-33.025-2.29-1.429-4.922-1.963-7.885-2.702zM519.746 798.202c-10.417-.737-20.388-1.078-30.366-.791-4.304.124-8.595.678-12.898.92-2.691.151-5.152-.598-5.657-3.627-.487-2.925.765-5.023 3.729-6.238 7.048-2.888 14.143-4.174 21.876-3.282 8.91 1.029 17.942.918 26.899-.036 9.515-1.014 18.9-.32 28.2 1.784a13.16 13.16 0 0 1 3.264 1.225c2.618 1.4 4.903 3.276 4.026 6.613-.898 3.416-3.804 4.085-6.8 3.497-8.596-1.69-17.26-.555-25.884-.831-1.965-.063-3.949.467-6.389.766z"/>
    <path d="M397.374 514.438c-1.315 1.845-2.653 3.475-4.684 2.456-2.213-1.109-1.698-3.308-1.262-5.312 4.671-21.498 26.094-37.082 48.003-33.62 11.944 1.888 21.752 8.778 29.015 18.713 1.366 1.868 2.077 4.13 1.889 6.586-.122 1.584-.313 3.126-2.142 3.466-1.639.304-2.928-.454-3.46-2.107-3.107-9.641-26.549-18.127-34.96-16.025-12.722 3.18-24.004 8.888-30.146 21.529-.653 1.345-1.383 2.653-2.253 4.314zM559.351 119.603c-4.956-8.356-10.648-15.7-16.886-22.65-1.618-1.802-4.212-4.025-2.266-6.425 2-2.467 4.947-.788 7.274.518 15.488 8.69 24.054 22.953 30.847 38.592 2.489 5.728 3.264 11.784 3.042 18.014-.154 4.344-2.036 7.883-6.273 8.392-4.824.58-5.918-3.84-6.296-7.432-1.079-10.255-4.148-19.784-9.442-29.01zM656.31 527.875c-.626-.193-.891-.44-1.375-.854-1.121-1.764-1.948-3.372-2.203-5.244-2.488-18.265-23.754-29.33-40.833-22.628-8.442 3.313-17.601 5.067-24.232 12.132-1.703 1.815-4.593 1.912-6.289-.043-1.545-1.781-.856-4.153.853-5.86 5.134-5.129 11.078-9.154 17.897-11.561 11.79-4.162 23.738-7.7 36.441-4.137 10.7 3.003 23.929 17.104 24.636 31.718.141 2.92-1.294 5.503-4.895 6.477zM488.305 84.392c17.324 3.82 29.29 14.393 39.126 27.965 3.911 5.397 7.712 10.858 10.426 16.973.799 1.8 1.532 3.68 1.475 5.752-.047 1.707-.032 3.415-1.93 4.212-2.107.884-3.525-.235-4.652-1.83-3.547-5.024-7.138-10.02-10.562-15.125-9.686-14.443-22.957-23.724-39.78-28.043-1.738-.447-3.46-1.254-4.967-2.236-2.135-1.39-1.988-3.727-1.638-5.884.376-2.316 2.323-2.722 4.197-2.63 2.638.129 5.345-.302 8.305.846zM541.79 555.73c-1.622-12.083-2.94-23.73-.155-35.405 1.903-7.974 4.824-15.522 9.255-22.431.788-1.23 1.968-2.283 3.155-3.166 1.564-1.163 3.358-2.758 5.371-1.396 2.419 1.636 1.09 3.968.206 5.83-5.495 11.56-8.693 23.809-8.787 36.495-.06 8.006 1.861 16.051 3.156 24.036.901 5.56-.49 10.555-2.332 16.892-6.277-6.46-7.81-13.559-9.868-20.855zM338.071 278.106c-12.155 2.907-22.984 7.869-33.272 14.103-.569.344-1.153.666-1.75.96-2.488 1.223-5.216 2.304-7.195-.431-1.816-2.511-.832-4.989 1.27-7.144 7.645-7.843 17.127-12.547 27.414-15.612 10.046-2.994 20.377-4.57 30.913-4.31 1.469.036 2.942.372 4.392.67 3.568.734 5.96 2.883 5.21 6.582-.743 3.658-4.014 3.13-6.92 2.948-6.66-.418-13.11 1.374-20.062 2.234zM660.224 243.736c-8.004 2.302-15.62 4.567-22.605 8.615-2.7 1.564-5.891 2.159-7.957-1.031-2.013-3.108-1.212-5.9 1.794-8.236 7.755-6.027 17.183-7.847 26.275-10.245 11.194-2.952 22.66-3.052 34.083-1.011 2.802.5 5.38 1.745 7.794 3.25 1.245.776 2.843 1.547 2.252 3.416-.548 1.734-2.177 1.81-3.72 1.83-7.813.1-15.645-.35-23.409 1.02-4.711.832-9.45 1.513-14.507 2.392zM259.11 744.303c-5.812 3.055-11.673 4.905-17.722 6.063-2.165.414-5.02 1.106-6.208-1.63-1.125-2.591 1.428-3.91 3.02-5.125 3.3-2.518 6.67-5.057 10.336-6.96 12.86-6.674 21.148-17.48 27.644-29.936 1.39-2.665 2.837-5.598 6.123-4.492 3.36 1.132 2.759 4.471 2.047 7.32-3.705 14.838-11.22 26.93-25.24 34.76zM532.946 195.946c-1.145-2.448-2.205-4.526-3.051-6.687-.758-1.934-2.265-4.18.24-5.808 2.4-1.558 4.013.585 5.602 1.913 4.275 3.573 7.355 8.035 9.752 13.065 6.396 13.418 6.32 27.577 4.757 41.845-.416 3.794-2.939 6.379-7.213 5.97-3.383-.324-4.883-3.876-4.172-8.773 1.97-13.568.826-26.782-4.78-39.441-.268-.606-.636-1.167-1.135-2.084zM792.474 693.532c3.695 3.435 7.665 5.893 11.693 8.214 3.005 1.732 4.03 4.308 2.694 7.12-1.34 2.817-4.095 2.656-6.945 1.74-17.944-5.765-32.7-25.156-33.246-43.885-.034-1.164-.1-2.35.071-3.493.346-2.324.76-4.955 3.6-5.297 2.803-.338 3.456 2.242 4.04 4.266 2.224 7.701 4.873 15.138 9.585 21.8 2.438 3.446 5.164 6.494 8.508 9.535zM226.299 710.391c-5.295 3.459-10.2 6.894-16.523 7.182-1.988.09-3.758.098-4.62-1.934-.8-1.88-.048-3.501 1.243-5.009 2.333-2.724 5.674-4.032 8.404-6.185 9.058-7.144 15.87-15.95 19.968-26.807.877-2.326 2.042-4.55 3.18-6.768.827-1.613 1.664-3.573 3.993-2.982 2.164.55 2.234 2.485 2.443 4.386 1.163 10.612-2.973 19.487-8.883 27.823-2.611 3.682-5.625 6.996-9.205 10.294zM432.643 717.637c-7.31 11.43-13.62 22.857-14.248 36.52-.13 2.842-1.055 5.43-4.692 5.097-3.874-.353-4.191-3.292-4.007-6.246.762-12.237 3.072-23.95 11.085-33.872 5.21-6.452 9.65-13.537 15.88-19.139 1.597-1.436 3.376-3.38 5.59-1.546 2.092 1.732 1.01 4.111-.174 5.89-2.947 4.42-6.135 8.678-9.434 13.296zM442.058 400.316c-24.113 5.93-46.43 14.738-65.01 31.263-2.346-3.176-.25-4.682.974-6.28 7.813-10.204 19.408-14.878 30.39-20.275 16.348-8.035 34.11-10.505 51.997-12.469 6.14-.674 12.24-.962 18.383-.89 1.883.022 4.17-.416 4.793 3.464-13.728 1.904-27.777 1.117-41.527 5.187zM618.656 740.311c-2.723-9.907-6.967-18.647-12.434-26.85-1.744-2.617-5.283-5.94-2.49-8.694 3.133-3.09 5.204 1.794 7.634 3.253 4.692 2.817 7.604 7.49 10.26 11.98 5.567 9.41 7.862 19.93 8.629 30.783.13 1.837-.206 3.613-.85 5.364-.61 1.664-1.387 2.97-3.342 3.23-2.053.272-3.446-.47-4.576-2.226-1.314-2.044-1.905-4.17-1.823-6.583.112-3.314.177-6.642-1.008-10.257zM497.936 490.895c8.359 16.698 11.13 33.82 7.456 51.866-.274 1.346-.312 2.73-1.818 3.223-1.753.574-2.813-.608-3.711-1.838-1.386-1.898-2.233-4.037-2.708-6.346-2.307-11.222-2.259-22.678-3.332-34.02-.314-3.33-.808-6.553-1.707-9.753-.484-1.725-1.23-3.792.783-4.917 1.821-1.018 3.52-.085 5.037 1.785zM594.261 218.282c3.911-4.31 6.51-9.312 11.038-12.591 1.864-1.35 3.918-3.1 6.265-1.184 2.313 1.888 1.746 4.245.728 6.793-2.656 6.642-7.72 11.584-11.784 17.222-3.688 5.115-7.68 10.01-11.408 15.097-1.806 2.465-3.853 4.625-6.989 3.06-3.467-1.73-3.035-4.98-1.485-7.775 3.945-7.117 7.826-14.302 13.635-20.622zM633.69 767.794c2.103-10.215.676-19.92-.633-29.631-.331-2.462-.891-4.956-.738-7.397.11-1.735-.545-4.35 2.234-4.927 2.79-.58 3.874 1.491 4.607 3.586 1.37 3.917 2.859 7.828 3.775 11.86 2.786 12.267 1.127 24.396-1.67 36.439-.645 2.782-2.754 3.645-5.292 3.487-2.887-.18-3.82-2.342-4.193-4.791-.448-2.953 1.454-5.415 1.91-8.626zM256.874 549.446c4.938-3.945 6.296.208 7.526 3.272 3.955 9.855 6.69 20.102 8.871 30.484.85 4.04 1.457 8.137 1.997 12.232.26 1.971.378 4.333-1.976 5.128-2.743.927-3.26-1.705-4.012-3.368-6.17-13.636-11.113-27.66-13.299-42.555-.26-1.779.388-3.253.893-5.193zM423.999 341.055c-21.74 7.46-41.181 18.64-60.13 30.81 3.357-14.242 57.67-42.172 85.403-38.616-8.656 4.443-17.239 4.689-25.273 7.806zM738.49 707.516c7.102 6.492 14.636 11.29 24.203 12.298 3.385.357 5.979 2.297 5.529 6.31-.444 3.965-3.637 3.182-6.156 3.207-14.153.137-28.275-9.114-33.461-21.707-1.19-2.887-1.257-5.627-.164-8.893 4.482 1.875 6.81 5.608 10.048 8.785zM578.213 650.368c-1.13 3.97-.635 8.052-3.723 11.007-1.543 1.476-2.683 3.823-5.289 2.534-2.888-1.428-1.773-4.097-1.08-6.15 1.376-4.075 3.156-7.902 2.646-12.481-.965-8.679-3.539-16.808-7.012-24.761-.814-1.866-3.272-4.328-.648-6.219 2.396-1.727 5.055-.405 7.376 1.177 3.574 2.436 5.146 6.144 5.934 10.06 1.62 8.052 4.2 16.082 1.796 24.833zM455.646 700.339c1.294-1.247 2.425-1.987 3.768-.905 1.052.846 1.076 2.181.655 3.23-.924 2.306-1.861 4.675-3.24 6.715-7.916 11.704-13.287 24.49-16.66 38.162-.604 2.444-1.807 4.68-4.645 4.21-2.607-.433-2.698-2.885-2.866-5.155-.46-6.184 1.192-11.954 3.778-17.364 4.97-10.398 11.331-19.941 19.21-28.893zM599.719 742.155c-1.984-9.446-7.643-17.02-10.023-25.883-.473-1.764-1.207-3.46-1.656-5.228-.454-1.786-.91-3.844 1.172-4.864 2.114-1.035 4.704-.864 5.788 1.284 6.1 12.09 14.086 23.508 14.325 37.818.049 2.88.212 5.822-4.01 6.08-4.051.247-4.605-2.323-4.88-5.376-.103-1.15-.444-2.277-.716-3.831zM584.667 563.154c.377-3.982 2.864-2.426 4.652-1.944 3.75 1.012 6.812 3.391 9.815 5.722 7.48 5.805 15.623 10.57 23.707 15.437 1.879 1.131 4.053 2.417 2.976 4.987-1.056 2.52-3.542 2.637-5.984 2.235-5.25-.864-9.591-3.75-13.732-6.726-7.82-5.62-15.039-11.98-21.434-19.711zM479.915 707.79c-2.14 11.845-7.487 22.446-8.818 34.114-.257 2.256-1.788 4.453-4.695 4.33-3.273-.138-3.379-2.991-3.594-5.114-.885-8.73 2.467-16.626 5.36-24.57 1.307-3.588 2.81-7.109 4.34-10.61.92-2.102 2.414-3.849 4.969-3.246 2.337.552 2.868 2.508 2.438 5.095zM409.244 728.179c-.868 6.614-4.841 11.591-6.847 17.393-1.65 4.771-2.69 8.906.616 13.592 1.87 2.652 3.412 6.6-.502 9.337-2.39 1.671-6.79-1.404-8.6-5.737-4.619-11.067.82-28.82 10.962-35.733 1.65-1.124 3.31-1.975 4.371 1.148zM583.183 731.219c.878 4.156 1.788 7.899-.056 11.623-.915 1.846-1.852 3.578-4.349 3.425-2.522-.156-3.803-2.13-3.772-3.975.153-9.068-5.24-16.777-5.949-25.587-.093-1.155-.303-2.31-.284-3.463.037-2.125.598-4.08 3.044-4.506 2.548-.444 3.926.85 4.73 3.29 2.077 6.297 4.347 12.529 6.636 19.193zM537.297 712.632c3.826-3.475 6.463-3.29 8.544.539 4.546 8.364 7.35 17.41 10.002 26.502.59 2.023-.184 3.606-1.834 4.715-1.74 1.169-3.154.15-4.478-.949-1.445-1.2-2.353-2.775-3.075-4.478-2.851-6.728-5.737-13.441-8.547-20.186-.764-1.832-1.512-3.729-.612-6.143zM519.665 715.212c.135-2.581-.314-5.17 2.83-5.362 2.676-.163 3.893 2.003 4.33 4.085.675 3.218 1 6.551 1.069 9.845.161 7.595 1.537 15.137.878 22.775-.178 2.054-.678 3.752-2.77 4.068-2.029.307-3.511-1.073-4.241-2.862-1.712-4.196-1.678-8.734-1.936-13.135-.37-6.296-.138-12.626-.16-19.414zM620.25 409.171c-7.813-2.51-15.58-1.569-23.12-2.683a70.296 70.296 0 0 1-12.068-2.888c-1.443-.481-2.85-1.073-2.75-3.736 21.006 1.06 41.978 1.645 61.949 9.59-7.917 1.8-15.737.237-24.012-.283zM437.967 586.95c-.368-3.168 1.614-4.684 3.429-6.04 7.729-5.778 15.577-11.396 24.273-15.68 2.227-1.098 4.473-2.366 7.07-.829.527 2.726-.954 4.41-2.946 5.825-8.127 5.776-16.242 11.569-24.4 17.302-2.423 1.703-4.967 3.092-7.426-.578zM495.473 640.348c-1.916-.925-3.168-2.105-3.261-3.894-.405-7.773-1.122-15.57.47-23.293.291-1.415 1.067-2.778 1.836-4.033.777-1.267 1.763-2.547 3.57-2.128 1.765.409 2.13 1.831 2.321 3.407 1.068 8.775.8 17.546-.223 26.292-.272 2.318-1.622 3.987-4.713 3.649zM492.745 736.07c1.014-7.312 1.794-14.22 3.075-21.034.6-3.189 1.295-6.64 3.975-9.189 2.182 1.793 1.532 3.749 1.517 5.44-.078 8.948.556 17.916-.931 26.828-.409 2.45.094 5.49-3.223 5.856-3.798.42-3.735-2.978-4.344-5.474-.154-.632-.07-1.323-.069-2.428zM430.06 559.622c3.241-.319 6.031-.716 8.836-.923 1.464-.108 3.273-.233 3.791 1.595.42 1.477-.173 3.052-1.317 4.087-.955.866-2.153 1.689-3.377 1.994-8.254 2.062-16.18 1.69-23.19-3.822-1.703-1.34-3.648-3.03-2.551-5.384 1.243-2.668 3.6-.668 5.318-.35 4.048.749 7.694 3.269 12.49 2.803zM608.972 560.774c1.203-4.69 5.091-3.71 7.738-3.486 5.702.484 11.169.563 16.543-1.713 1.648-.698 3.84-1.25 4.735.992.848 2.126-.382 3.729-2.362 4.825-6.947 3.847-14.66 3.279-22.155 3.825-2.48.18-3.68-1.879-4.499-4.443zM340.403 525.786c-.532-2.795.99-2.267 2.154-1.582 2.99 1.759 6 3.53 8.782 5.593 3.512 2.605 7.207 3.825 11.558 2.868 1.923-.423 4.19-1.132 4.56 1.955.298 2.495-.309 4.693-3.166 5.356-4.835 1.122-9.313-.138-13.18-2.904-4.155-2.971-8.222-6.19-10.708-11.286zM384.76 571.994c.195 1.904-.822 2.853-2.035 3.36-4.973 2.082-10 4.033-15.086 6.063-1.298-6.208 9.351-11.946 17.12-9.423z"/></svg>